<svg width="20" height="20" viewBox="0 0 20 20" fill="none" xmlns="http://www.w3.org/2000/svg">
<g clip-path="url(#clip0)">
<path d="M19.8828 6.32031C19.9609 7.72657 20 9.11978 20 10.5C20 11.8802 19.9609 13.2734 19.8828 14.6797C19.8828 15.5651 19.6029 16.3138 19.043 16.9258C18.4831 17.5378 17.7995 17.8438 16.9922 17.8438C14.987 17.9479 12.6563 18 10 18C7.34374 18 5.01303 17.9479 3.00781 17.8438C2.20052 17.8438 1.51693 17.5378 0.957031 16.9258C0.397133 16.3138 0.117187 15.5651 0.117187 14.6797C0.0390618 13.2734 0 11.8802 0 10.5C0 9.58854 0.0520827 8.19532 0.15625 6.32031C0.15625 5.43489 0.429685 4.6862 0.976563 4.07422C1.52344 3.46224 2.20052 3.15625 3.00781 3.15625C4.90886 3.05208 7.12238 3 9.64844 3H10H10.3516C12.8776 3 15.0911 3.05208 16.9922 3.15625C17.7995 3.15625 18.4831 3.46224 19.043 4.07422C19.6029 4.6862 19.8828 5.43489 19.8828 6.32031ZM8.08594 14.3281L13.75 10.5L8.08594 6.63281V14.3281Z" fill="#898286"/>
</g>
<defs>
<clipPath id="clip0">
<rect width="20" height="20" fill="white"/>
</clipPath>
</defs>
</svg>
