<svg width="20" height="20" viewBox="0 0 20 20" fill="none" xmlns="http://www.w3.org/2000/svg">
<path fill-rule="evenodd" clip-rule="evenodd" d="M18.6367 20L12.956 14.3193L12.5439 14.6033C11.2544 15.4921 9.69199 16.0125 8.00623 16.0125C3.58451 16.0125 0 12.4279 0 8.00623C0 3.58451 3.58451 0 8.00623 0C12.4279 0 16.0125 3.58451 16.0125 8.00623C16.0125 9.69199 15.4921 11.2544 14.6033 12.5439L14.3193 12.956L20 18.6367L18.6367 20ZM8.00633 14.0845C11.3632 14.0845 14.0846 11.3631 14.0846 8.00623C14.0846 4.64932 11.3632 1.928 8.00633 1.928C4.64942 1.928 1.9281 4.64932 1.9281 8.00623C1.9281 11.3631 4.64942 14.0845 8.00633 14.0845Z" fill="#A2A5A8"/>
</svg>
