<svg width="20" height="20" viewBox="0 0 20 20" fill="none" xmlns="http://www.w3.org/2000/svg">
<g clip-path="url(#clip0)">
<path d="M4.46429 19.9805H0.3125V6.63226H4.46429V19.9805ZM4.10714 4.08761C3.63095 4.56381 3.06548 4.8019 2.41071 4.8019C1.75595 4.8019 1.19048 4.56381 0.714286 4.08761C0.238092 3.61142 0 3.04595 0 2.39118C0 1.73642 0.238092 1.17095 0.714286 0.694754C1.19048 0.218561 1.75595 -0.0195312 2.41071 -0.0195312C3.06548 -0.0195312 3.63095 0.218561 4.10714 0.694754C4.58334 1.17095 4.82143 1.73642 4.82143 2.39118C4.82143 3.04595 4.58334 3.61142 4.10714 4.08761ZM20 19.9805H15.8482V13.4626C15.8482 13.0757 15.8408 12.7558 15.8259 12.5028C15.811 12.2498 15.7664 11.9448 15.692 11.5876C15.6176 11.2305 15.5134 10.9477 15.3795 10.7394C15.2455 10.5311 15.0372 10.3451 14.7545 10.1814C14.4717 10.0177 14.122 9.93583 13.7054 9.93583C12.7232 9.93583 12.061 10.2483 11.7188 10.8733C11.3765 11.4983 11.2054 12.3317 11.2054 13.3733V19.9805H7.05357V6.63226H11.0714V8.46261H11.1161C11.4137 7.86737 11.9048 7.35398 12.5893 6.92243C13.2738 6.49088 14.0923 6.27511 15.0446 6.27511C16.0566 6.27511 16.8973 6.43136 17.567 6.74386C18.2366 7.05636 18.7426 7.51767 19.0848 8.12779C19.4271 8.73791 19.6652 9.40011 19.7991 10.1144C19.933 10.8287 20 11.6769 20 12.659V19.9805Z" fill="#898286"/>
</g>
<defs>
<clipPath id="clip0">
<rect width="20" height="20" fill="white"/>
</clipPath>
</defs>
</svg>
