<svg width="20" height="20" viewBox="0 0 20 20" fill="none" xmlns="http://www.w3.org/2000/svg">
<g clip-path="url(#clip0)">
<path d="M18.9078 -0.0195312H1.10045C0.491869 -0.0195312 0 0.472135 0 1.08047V18.8721C0 19.4888 0.491869 19.9805 1.10045 19.9805H10.6877V12.2471H8.08666V9.22214H10.6877V6.9888C10.6877 4.40547 12.2634 2.99714 14.5727 2.99714C15.6731 2.99714 16.6235 3.08047 16.8986 3.1138V5.8138H15.3063C14.0558 5.8138 13.8057 6.4138 13.8057 7.28047V9.20547H16.8069L16.4151 12.2305H13.8057V19.9805H18.8994C19.508 19.9805 19.9999 19.4888 19.9999 18.8805V1.08047C20.0082 0.472135 19.5164 -0.0195312 18.9078 -0.0195312Z" fill="#898286"/>
</g>
<defs>
<clipPath id="clip0">
<rect width="20" height="20" fill="white"/>
</clipPath>
</defs>
</svg>
