<svg width="20" height="20" viewBox="0 0 20 20" fill="none" xmlns="http://www.w3.org/2000/svg">
<path fill-rule="evenodd" clip-rule="evenodd" d="M10 1.8C12.6667 1.8 12.9833 1.80833 14.0417 1.85833C15.0167 1.9 15.55 2.06667 15.9 2.2C16.3667 2.38333 16.7 2.6 17.05 2.95C17.4 3.3 17.6167 3.63333 17.8 4.1C17.9333 4.45 18.1 4.98333 18.1417 5.95833C18.1917 7.01667 18.2 7.325 18.2 10C18.2 12.675 18.1917 12.9833 18.1417 14.0417C18.1 15.0167 17.9333 15.55 17.8 15.9C17.6167 16.3667 17.4 16.7 17.05 17.05C16.7 17.4 16.3667 17.6167 15.9 17.8C15.55 17.9333 15.0167 18.1 14.0417 18.1417C12.9833 18.1917 12.675 18.2 10 18.2C7.325 18.2 7.01667 18.1917 5.95833 18.1417C4.98333 18.1 4.45 17.9333 4.1 17.8C3.63333 17.6167 3.3 17.4 2.95 17.05C2.6 16.7 2.38333 16.3667 2.2 15.9C2.06667 15.55 1.9 15.0167 1.85833 14.0417C1.80833 12.9833 1.8 12.6667 1.8 10C1.8 7.33333 1.80833 7.01667 1.85833 5.95833C1.9 4.98333 2.06667 4.45 2.2 4.1C2.38333 3.63333 2.6 3.3 2.95 2.95C3.3 2.6 3.63333 2.38333 4.1 2.2C4.45 2.06667 4.98333 1.9 5.95833 1.85833C7.01667 1.80833 7.33333 1.8 10 1.8ZM10 0C7.28333 0 6.94167 0.00833333 5.875 0.0583333C4.81667 0.108333 4.08333 0.275 3.45 0.525C2.79167 0.783333 2.23333 1.125 1.675 1.675C1.125 2.23333 0.783333 2.79167 0.525 3.45C0.275 4.08333 0.108333 4.81667 0.0583333 5.875C0.00833333 6.94167 0 7.28333 0 10C0 12.7167 0.00833333 13.0583 0.0583333 14.125C0.108333 15.1917 0.275 15.9167 0.525 16.55C0.783333 17.2083 1.125 17.7667 1.675 18.325C2.23333 18.8833 2.79167 19.225 3.45 19.475C4.08333 19.725 4.81667 19.8917 5.875 19.9417C6.94167 19.9917 7.28333 20 10 20C12.7167 20 13.0583 19.9917 14.125 19.9417C15.1917 19.8917 15.9167 19.725 16.55 19.475C17.2083 19.2167 17.7667 18.875 18.325 18.325C18.8833 17.7667 19.225 17.2083 19.475 16.55C19.725 15.9167 19.8917 15.1833 19.9417 14.125C19.9917 13.0583 20 12.7167 20 10C20 7.28333 19.9917 6.94167 19.9417 5.875C19.8917 4.80833 19.725 4.08333 19.475 3.45C19.2167 2.79167 18.875 2.23333 18.325 1.675C17.7667 1.11667 17.2083 0.775 16.55 0.525C15.9167 0.275 15.1833 0.108333 14.125 0.0583333C13.0583 0.00833333 12.7167 0 10 0ZM10 4.8667C7.1667 4.8667 4.8667 7.1667 4.8667 10C4.8667 12.8334 7.1667 15.1334 10 15.1334C12.8334 15.1334 15.1334 12.8334 15.1334 10C15.1334 7.1667 12.8334 4.8667 10 4.8667ZM10 13.3334C8.15837 13.3334 6.6667 11.8417 6.6667 10C6.6667 8.15837 8.15837 6.6667 10 6.6667C11.8417 6.6667 13.3334 8.15837 13.3334 10C13.3334 11.8417 11.8417 13.3334 10 13.3334ZM16.5416 4.6585C16.5416 5.32124 16.0043 5.8585 15.3416 5.8585C14.6789 5.8585 14.1416 5.32124 14.1416 4.6585C14.1416 3.99575 14.6789 3.4585 15.3416 3.4585C16.0043 3.4585 16.5416 3.99575 16.5416 4.6585Z" fill="#898286"/>
</svg>
