<svg width="28" height="28" viewBox="0 0 28 28" fill="none" xmlns="http://www.w3.org/2000/svg">
<path d="M11.5601 0H15.0601V3.5H17.6851C18.8284 3.5 19.7734 3.75666 20.5201 4.27C21.5467 4.99334 22.0601 5.90333 22.0601 7V10.5H18.5601V7.21C18.3734 7.07 18.0817 7 17.6851 7H8.93506C8.67839 7 8.46839 7.08167 8.30506 7.245C8.14172 7.40833 8.06006 7.61833 8.06006 7.875V9.625C8.06006 9.88167 8.19422 10.185 8.46256 10.535C8.73089 10.885 8.99339 11.095 9.25006 11.165L18.2451 13.44C19.3884 13.72 20.3101 14.315 21.0101 15.225C21.7101 16.135 22.0601 17.185 22.0601 18.375V20.125C22.0601 21.315 21.6284 22.3417 20.7651 23.205C19.9017 24.0683 18.8751 24.5 17.6851 24.5H15.0601V28H11.5601V24.5H8.93506C7.79172 24.5 6.84673 24.2433 6.10006 23.73C5.07339 23.0067 4.56006 22.0967 4.56006 21V17.5H8.06006V20.79C8.24673 20.93 8.53839 21 8.93506 21H17.6851C17.9417 21 18.1517 20.9183 18.3151 20.755C18.4784 20.5917 18.5601 20.3817 18.5601 20.125V18.375C18.5601 18.1183 18.4259 17.815 18.1576 17.465C17.8892 17.115 17.6267 16.905 17.3701 16.835L8.37506 14.56C7.23172 14.28 6.31006 13.685 5.61006 12.775C4.91005 11.865 4.56006 10.815 4.56006 9.625V7.875C4.56006 6.68499 4.99172 5.65834 5.85506 4.795C6.7184 3.93166 7.74505 3.5 8.93506 3.5H11.5601V0Z" fill="#E50071"/>
</svg>
