<svg width="23" height="27" viewBox="0 0 23 27" fill="none" xmlns="http://www.w3.org/2000/svg">
<g clip-path="url(#clip0)">
<path d="M22.1354 9.28125C22.0781 9.22396 22.0352 9.16667 22.0065 9.10937C21.9779 9.05208 21.9349 8.98524 21.8776 8.90885L13.3411 0.372396C13.2648 0.315104 13.1979 0.257813 13.1406 0.200521C13.0833 0.143229 13.026 0.114584 12.9687 0.114584C12.9115 0.057292 12.8303 0.023872 12.7253 0.0143227C12.6202 0.00477467 12.5391 0 12.4818 0H3.91667C2.88541 0 2.0165 0.353295 1.3099 1.0599C0.603295 1.7665 0.25 2.63541 0.25 3.66667V23.2318C0.25 24.263 0.603295 25.1319 1.3099 25.8385C2.0165 26.5451 2.88541 26.8984 3.91667 26.8984H18.5833C19.6146 26.8984 20.4835 26.5451 21.1901 25.8385C21.8967 25.1319 22.25 24.263 22.25 23.2318V9.76823C22.25 9.71094 22.2452 9.62977 22.2357 9.52474C22.2261 9.4197 22.1927 9.33854 22.1354 9.28125ZM13.6849 4.15365L18.0964 8.5651H13.6849V4.15365ZM18.5833 24.4349H3.91667C3.55382 24.4349 3.25781 24.3251 3.02865 24.1055C2.79948 23.8858 2.6849 23.5946 2.6849 23.2318V3.66667C2.6849 3.30382 2.79948 3.00781 3.02865 2.77865C3.25781 2.54948 3.55382 2.4349 3.91667 2.4349H11.25V9.76823C11.25 10.1502 11.3598 10.451 11.5794 10.6706C11.799 10.8902 12.0998 11 12.4818 11H19.8151V23.2318C19.8151 23.5946 19.7005 23.8858 19.4714 24.1055C19.2422 24.3251 18.9462 24.4349 18.5833 24.4349Z" fill="white"/>
</g>
<defs>
<clipPath id="clip0">
<rect width="22" height="26.8984" fill="white" transform="translate(0.25)"/>
</clipPath>
</defs>
</svg>
