<svg width="28" height="28" viewBox="0 0 28 28" fill="none" xmlns="http://www.w3.org/2000/svg">
<g opacity="0.6">
<path d="M25.8802 9.66134C25.8203 9.6017 25.7754 9.54207 25.7454 9.48243C25.7155 9.42279 25.6706 9.35321 25.6107 9.2737L16.6862 0.387647C16.6063 0.328008 16.5365 0.268371 16.4766 0.208733C16.4167 0.149095 16.3568 0.119277 16.2969 0.119277C16.237 0.0596383 16.1521 0.0248496 16.0423 0.0149092C15.9325 0.0049702 15.8477 0 15.7878 0H6.83333C5.7552 0 4.84679 0.367763 4.10807 1.1033C3.36935 1.83884 3 2.74334 3 3.81683V24.1832C3 25.2567 3.36935 26.1612 4.10807 26.8967C4.84679 27.6322 5.7552 28 6.83333 28H22.1667C23.2448 28 24.1532 27.6322 24.8919 26.8967C25.6306 26.1612 26 25.2567 26 24.1832V10.1683C26 10.1086 25.995 10.0241 25.985 9.9148C25.975 9.80547 25.9401 9.72098 25.8802 9.66134ZM17.0456 4.32375L21.6576 8.91587H17.0456V4.32375ZM22.1667 25.4356H6.83333C6.45399 25.4356 6.14453 25.3213 5.90495 25.0927C5.66536 24.864 5.54557 24.5609 5.54557 24.1832V3.81683C5.54557 3.43912 5.66536 3.13099 5.90495 2.89244C6.14453 2.65389 6.45399 2.53461 6.83333 2.53461H14.5V10.1683C14.5 10.5659 14.6148 10.8789 14.8444 11.1076C15.074 11.3362 15.3885 11.4505 15.7878 11.4505H23.4544V24.1832C23.4544 24.5609 23.3346 24.864 23.0951 25.0927C22.8555 25.3213 22.546 25.4356 22.1667 25.4356Z" fill="#E50071"/>
</g>
</svg>
