<svg width="30" height="29" viewBox="0 0 30 29" fill="none" xmlns="http://www.w3.org/2000/svg">
<mask id="mask0" mask-type="alpha" maskUnits="userSpaceOnUse" x="0" y="-1" width="30" height="30">
<path d="M25.8254 20.2503C22.3736 26.229 14.7287 28.2774 8.75009 24.8256C2.77143 21.3739 0.72299 13.729 4.17477 7.75033C7.62655 1.77167 15.2714 -0.276765 21.2501 3.17501C27.2287 6.62679 29.2772 14.2717 25.8254 20.2503Z" fill="#EB006E" stroke="#E50071" stroke-width="3"/>
</mask>
<g mask="url(#mask0)">
<mask id="path-2-inside-1" fill="white">
<path fill-rule="evenodd" clip-rule="evenodd" d="M27.1244 21.0003C23.2584 27.6964 14.6962 29.9907 8.00009 26.1247C1.30399 22.2587 -0.990261 13.6964 2.87573 7.00033C6.74173 0.304235 15.304 -1.99002 22.0001 1.87598C28.6962 5.74197 30.9904 14.3042 27.1244 21.0003ZM9.86675 22.8915C14.7772 25.7266 21.0562 24.0441 23.8913 19.1337C26.7263 14.2232 25.0439 7.9442 20.1334 5.10914C15.2229 2.27408 8.94395 3.95653 6.10889 8.867C3.27383 13.7775 4.95628 20.0565 9.86675 22.8915Z"/>
</mask>
<path fill-rule="evenodd" clip-rule="evenodd" d="M27.1244 21.0003C23.2584 27.6964 14.6962 29.9907 8.00009 26.1247C1.30399 22.2587 -0.990261 13.6964 2.87573 7.00033C6.74173 0.304235 15.304 -1.99002 22.0001 1.87598C28.6962 5.74197 30.9904 14.3042 27.1244 21.0003ZM9.86675 22.8915C14.7772 25.7266 21.0562 24.0441 23.8913 19.1337C26.7263 14.2232 25.0439 7.9442 20.1334 5.10914C15.2229 2.27408 8.94395 3.95653 6.10889 8.867C3.27383 13.7775 4.95628 20.0565 9.86675 22.8915Z" fill="#EB006E"/>
<path d="M20.1334 5.10914L18.6334 7.70721L18.6334 7.70721L20.1334 5.10914ZM6.10889 8.867L3.51082 7.367L3.51082 7.367L6.10889 8.867ZM6.50009 28.7228C14.6311 33.4172 25.0281 30.6313 29.7225 22.5003L24.5264 19.5003C21.4888 24.7616 14.7613 26.5642 9.50009 23.5266L6.50009 28.7228ZM0.277656 5.50033C-4.41676 13.6313 -1.63089 24.0283 6.50009 28.7228L9.50009 23.5266C4.23887 20.489 2.43624 13.7616 5.47381 8.50033L0.277656 5.50033ZM23.5001 -0.722099C15.3691 -5.41652 4.97208 -2.63064 0.277656 5.50033L5.47381 8.50033C8.51137 3.23911 15.2389 1.43649 20.5001 4.47405L23.5001 -0.722099ZM29.7225 22.5003C34.4169 14.3694 31.6311 3.97232 23.5001 -0.722099L20.5001 4.47405C25.7613 7.51162 27.5639 14.2391 24.5264 19.5003L29.7225 22.5003ZM21.2932 17.6337C19.2866 21.1093 14.8423 22.3001 11.3668 20.2934L8.36675 25.4896C14.7121 29.1531 22.8259 26.979 26.4894 20.6337L21.2932 17.6337ZM18.6334 7.70721C22.109 9.71385 23.2998 14.1581 21.2932 17.6337L26.4894 20.6337C30.1528 14.2883 27.9788 6.17455 21.6334 2.51106L18.6334 7.70721ZM8.70697 10.367C10.7136 6.8914 15.1578 5.70058 18.6334 7.70721L21.6334 2.51106C15.2881 -1.15243 7.17431 1.02165 3.51082 7.367L8.70697 10.367ZM11.3668 20.2934C7.89116 18.2868 6.70034 13.8426 8.70697 10.367L3.51082 7.367C-0.152672 13.7123 2.0214 21.8261 8.36675 25.4896L11.3668 20.2934Z" fill="#E50071" mask="url(#path-2-inside-1)"/>
<mask id="path-4-inside-2" fill="white">
<path fill-rule="evenodd" clip-rule="evenodd" d="M41.6735 29.3997C37.8075 36.0958 29.2453 38.3901 22.5492 34.5241C15.8531 30.6581 13.5588 22.0958 17.4248 15.3997C21.2908 8.70365 29.8531 6.4094 36.5492 10.2754C43.2453 14.1414 45.5395 22.7036 41.6735 29.3997ZM24.4158 31.2909C29.3263 34.126 35.6053 32.4436 38.4404 27.5331C41.2754 22.6226 39.593 16.3436 34.6825 13.5086C29.772 10.6735 23.493 12.3559 20.658 17.2664C17.8229 22.1769 19.5054 28.4559 24.4158 31.2909Z"/>
</mask>
<path fill-rule="evenodd" clip-rule="evenodd" d="M41.6735 29.3997C37.8075 36.0958 29.2453 38.3901 22.5492 34.5241C15.8531 30.6581 13.5588 22.0958 17.4248 15.3997C21.2908 8.70365 29.8531 6.4094 36.5492 10.2754C43.2453 14.1414 45.5395 22.7036 41.6735 29.3997ZM24.4158 31.2909C29.3263 34.126 35.6053 32.4436 38.4404 27.5331C41.2754 22.6226 39.593 16.3436 34.6825 13.5086C29.772 10.6735 23.493 12.3559 20.658 17.2664C17.8229 22.1769 19.5054 28.4559 24.4158 31.2909Z" fill="#EB006E"/>
<path d="M34.6825 13.5086L36.1825 10.9105L34.6825 13.5086ZM21.0492 37.1222C29.1801 41.8166 39.5772 39.0307 44.2716 30.8997L39.0754 27.8997C36.0379 33.161 29.3104 34.9636 24.0492 31.926L21.0492 37.1222ZM14.8267 13.8997C10.1323 22.0307 12.9182 32.4278 21.0492 37.1222L24.0492 31.926C18.7879 28.8885 16.9853 22.161 20.0229 16.8997L14.8267 13.8997ZM38.0492 7.67731C29.9182 2.98289 19.5211 5.76877 14.8267 13.8997L20.0229 16.8997C23.0604 11.6385 29.7879 9.8359 35.0492 12.8735L38.0492 7.67731ZM44.2716 30.8997C48.966 22.7688 46.1801 12.3717 38.0492 7.67731L35.0492 12.8735C40.3104 15.911 42.113 22.6385 39.0754 27.8997L44.2716 30.8997ZM35.8423 26.0331C33.8356 29.5087 29.3914 30.6995 25.9158 28.6929L22.9158 33.889C29.2612 37.5525 37.3749 35.3784 41.0384 29.0331L35.8423 26.0331ZM33.1825 16.1066C36.6581 18.1133 37.8489 22.5575 35.8423 26.0331L41.0384 29.0331C44.7019 22.6877 42.5278 14.574 36.1825 10.9105L33.1825 16.1066ZM23.256 18.7664C25.2627 15.2908 29.7069 14.1 33.1825 16.1066L36.1825 10.9105C29.8371 7.24699 21.7234 9.42106 18.0599 15.7664L23.256 18.7664ZM25.9158 28.6929C22.4402 26.6862 21.2494 22.242 23.256 18.7664L18.0599 15.7664C14.3964 22.1118 16.5705 30.2255 22.9158 33.889L25.9158 28.6929Z" fill="#E50071" mask="url(#path-4-inside-2)"/>
<mask id="path-6-inside-3" fill="white">
<path fill-rule="evenodd" clip-rule="evenodd" d="M12.5751 12.5999C8.70913 19.296 0.146868 21.5903 -6.54923 17.7243C-13.2453 13.8583 -15.5396 5.29604 -11.6736 -1.40006C-7.80759 -8.09615 0.754675 -10.3904 7.45077 -6.52441C14.1469 -2.65842 16.4411 5.90385 12.5751 12.5999ZM-4.68256 14.4911C0.227908 17.3262 6.5069 15.6437 9.34196 10.7333C12.177 5.8228 10.4946 -0.456192 5.5841 -3.29125C0.673633 -6.12632 -5.60536 -4.44386 -8.44042 0.466607C-11.2755 5.37708 -9.59303 11.6561 -4.68256 14.4911Z"/>
</mask>
<path fill-rule="evenodd" clip-rule="evenodd" d="M12.5751 12.5999C8.70913 19.296 0.146868 21.5903 -6.54923 17.7243C-13.2453 13.8583 -15.5396 5.29604 -11.6736 -1.40006C-7.80759 -8.09615 0.754675 -10.3904 7.45077 -6.52441C14.1469 -2.65842 16.4411 5.90385 12.5751 12.5999ZM-4.68256 14.4911C0.227908 17.3262 6.5069 15.6437 9.34196 10.7333C12.177 5.8228 10.4946 -0.456192 5.5841 -3.29125C0.673633 -6.12632 -5.60536 -4.44386 -8.44042 0.466607C-11.2755 5.37708 -9.59303 11.6561 -4.68256 14.4911Z" fill="#EB006E"/>
<path d="M-8.04923 20.3224C0.081745 25.0168 10.4788 22.2309 15.1732 14.0999L9.97705 11.0999C6.93948 16.3612 0.21199 18.1638 -5.04923 15.1262L-8.04923 20.3224ZM-14.2717 -2.90006C-18.9661 5.23092 -16.1802 15.628 -8.04923 20.3224L-5.04923 15.1262C-10.3104 12.0887 -12.1131 5.36116 -9.07551 0.0999414L-14.2717 -2.90006ZM8.95077 -9.12249C0.819797 -13.8169 -9.57724 -11.031 -14.2717 -2.90006L-9.07551 0.0999414C-6.03794 -5.16128 0.689553 -6.9639 5.95077 -3.92634L8.95077 -9.12249ZM15.1732 14.0999C19.8676 5.96897 17.0817 -4.42807 8.95077 -9.12249L5.95077 -3.92634C11.212 -0.888772 13.0146 5.83872 9.97705 11.0999L15.1732 14.0999ZM6.74389 9.23327C4.73725 12.7089 0.29303 13.8997 -3.18256 11.8931L-6.18256 17.0892C0.162785 20.7527 8.27655 18.5786 11.94 12.2333L6.74389 9.23327ZM4.0841 -0.693178C7.5597 1.31346 8.75052 5.75768 6.74389 9.23327L11.94 12.2333C15.6035 5.88792 13.4295 -2.22584 7.0841 -5.88933L4.0841 -0.693178ZM-5.84235 1.96661C-3.83571 -1.50899 0.608511 -2.69981 4.0841 -0.693178L7.0841 -5.88933C0.738755 -9.55282 -7.37501 -7.37874 -11.0385 -1.03339L-5.84235 1.96661ZM-3.18256 11.8931C-6.65816 9.88642 -7.84898 5.4422 -5.84235 1.96661L-11.0385 -1.03339C-14.702 5.31196 -12.5279 13.4257 -6.18256 17.0892L-3.18256 11.8931Z" fill="#E50071" mask="url(#path-6-inside-3)"/>
</g>
</svg>
