<svg width="29" height="28" viewBox="0 0 29 28" fill="none" xmlns="http://www.w3.org/2000/svg">
<path fill-rule="evenodd" clip-rule="evenodd" d="M16.1899 0H12.6899L10.9399 4.165L9.95994 4.585L5.79494 2.835L3.27494 5.355L5.02494 9.52L4.60494 10.5L0.439941 12.25V15.75L4.60494 17.5L5.02494 18.48L3.27494 22.645L5.79494 25.165L9.95994 23.415L10.9399 23.835L12.6899 28H16.1899L17.9399 23.835L18.9199 23.415L23.0849 25.165L25.6049 22.645L23.8549 18.48L24.2749 17.5L28.4399 15.75V12.25L24.2749 10.5L23.8549 9.52L25.6049 5.355L23.0849 2.835L18.9199 4.585L17.9399 4.165L16.1899 0ZM14.4399 20.0667C17.7905 20.0667 20.5066 17.3505 20.5066 14C20.5066 10.6495 17.7905 7.93333 14.4399 7.93333C11.0894 7.93333 8.37327 10.6495 8.37327 14C8.37327 17.3505 11.0894 20.0667 14.4399 20.0667Z" fill="#E50071"/>
</svg>
