<svg width="28" height="28" viewBox="0 0 28 28" fill="none" xmlns="http://www.w3.org/2000/svg">
<path fill-rule="evenodd" clip-rule="evenodd" d="M6.89075 1.93941C9.73872 0.260646 13.0889 -0.356121 16.348 0.198329C19.6071 0.752778 22.5649 2.44267 24.6975 4.96875C26.8301 7.49483 28 10.6941 28 14C28 14.7483 27.3934 15.3549 26.6452 15.3549C25.8969 15.3549 25.2903 14.7483 25.2903 14C25.2903 11.334 24.3469 8.7539 22.627 6.71674C20.9071 4.67958 18.5219 3.31676 15.8935 2.86963C13.2652 2.42249 10.5635 2.91988 8.26674 4.27372C5.96999 5.62757 4.22643 7.7505 3.34482 10.2666C2.46322 12.7827 2.50044 15.5296 3.44991 18.0209C4.39938 20.5121 6.19983 22.587 8.53243 23.8781C10.865 25.1692 13.5793 25.5932 16.1945 25.075C18.8097 24.5568 21.1572 23.1299 22.8212 21.0469C23.2882 20.4622 24.1408 20.3669 24.7254 20.8339C25.31 21.301 25.4053 22.1535 24.9383 22.7381C22.8749 25.321 19.964 27.0905 16.7212 27.733C13.4783 28.3756 10.1126 27.8499 7.22021 26.2489C4.32779 24.6479 2.09523 22.075 0.917892 18.9859C-0.25945 15.8967 -0.305612 12.4905 0.78758 9.37057C1.88077 6.25061 4.04278 3.61817 6.89075 1.93941Z" fill="url(#paint0_angular)"/>
<defs>
<radialGradient id="paint0_angular" cx="0" cy="0" r="1" gradientUnits="userSpaceOnUse" gradientTransform="translate(14 14) rotate(4.08562) scale(12.6774)">
<stop stop-color="#F7F8F8"/>
<stop offset="0.0804288" stop-color="#F7F8F8" stop-opacity="0"/>
</radialGradient>
</defs>
</svg>
