<svg width="28" height="28" viewBox="0 0 28 28" fill="none" xmlns="http://www.w3.org/2000/svg">
<g clip-path="url(#clip0)">
<path fill-rule="evenodd" clip-rule="evenodd" d="M24.5325 18.4932L28 24.499L27.9984 24.4999H28L26.1333 27.9999H14V27.9999H1.86667L0 24.4999H0.00157831L0 24.499L3.46746 18.4932L6.49855 20.2432L4.04093 24.4999H14V24.4999H23.9591L21.5015 20.2432L24.5325 18.4932Z" fill="#E50071"/>
<path fill-rule="evenodd" clip-rule="evenodd" d="M14.0623 20.5333C14.0623 20.5333 21.5912 14.3733 21.5912 7.52889C21.5912 3.3708 18.2204 0 14.0623 0C9.90425 0 6.53345 3.3708 6.53345 7.52889C6.53345 14.3733 14.0623 20.5333 14.0623 20.5333ZM14.0001 11.2C16.062 11.2 17.7335 9.52853 17.7335 7.46667C17.7335 5.40481 16.062 3.73334 14.0001 3.73334C11.9383 3.73334 10.2668 5.40481 10.2668 7.46667C10.2668 9.52853 11.9383 11.2 14.0001 11.2Z" fill="#E50071"/>
</g>
<defs>
<clipPath id="clip0">
<rect width="28" height="28.0002" fill="white"/>
</clipPath>
</defs>
</svg>
