<svg width="28" height="28" viewBox="0 0 28 28" fill="none" xmlns="http://www.w3.org/2000/svg">
<path fill-rule="evenodd" clip-rule="evenodd" d="M17.6185 18.1736C16.455 18.9755 15.0447 19.4451 13.5247 19.4451C9.53576 19.4451 6.30212 16.2114 6.30212 12.2225C6.30212 8.23364 9.53576 5 13.5247 5C17.5135 5 20.7472 8.23364 20.7472 12.2225C20.7472 13.7425 20.2776 15.1529 19.4757 16.3164L24.3021 21.1429L22.445 23L17.6185 18.1736ZM13.5247 16.8186C16.0631 16.8186 18.1209 14.7609 18.1209 12.2225C18.1209 9.6841 16.0631 7.62633 13.5247 7.62633C10.9864 7.62633 8.92858 9.6841 8.92858 12.2225C8.92858 14.7609 10.9864 16.8186 13.5247 16.8186Z" fill="#E50071"/>
</svg>
