<svg width="40" height="18" viewBox="0 0 40 18" fill="none" xmlns="http://www.w3.org/2000/svg">
<path fill-rule="evenodd" clip-rule="evenodd" d="M29.9158 2.05744L30.9768 1L38.9968 8.99803L38.9964 8.99842L38.9999 9.002L30.9799 17L29.916 15.9455L36.1298 9.74874H1V8.25134H36.1267L29.9158 2.05744Z" fill="#A2A5A8"/>
<path d="M30.9768 1L31.1533 0.822981L30.9768 0.646984L30.8003 0.822928L30.9768 1ZM29.9158 2.05744L29.7393 1.88036L29.5617 2.05738L29.7392 2.23446L29.9158 2.05744ZM38.9968 8.99803L39.1735 9.1748L39.3506 8.99778L39.1733 8.82101L38.9968 8.99803ZM38.9964 8.99842L38.8196 8.82165L38.6426 8.99861L38.8198 9.17539L38.9964 8.99842ZM38.9999 9.002L39.1765 9.17902L39.3539 9.00206L39.1765 8.82504L38.9999 9.002ZM30.9799 17L30.804 17.1776L30.9805 17.3526L31.1565 17.177L30.9799 17ZM29.916 15.9455L29.7395 15.7685L29.5614 15.9461L29.74 16.1231L29.916 15.9455ZM36.1298 9.74874L36.3064 9.92576L36.7346 9.49874H36.1298V9.74874ZM1 9.74874H0.75V9.99874H1V9.74874ZM1 8.25134V8.00134H0.75V8.25134H1ZM36.1267 8.25134V8.50134H36.7314L36.3032 8.07432L36.1267 8.25134ZM30.8003 0.822928L29.7393 1.88036L30.0923 2.23451L31.1532 1.17707L30.8003 0.822928ZM39.1733 8.82101L31.1533 0.822981L30.8002 1.17702L38.8202 9.17505L39.1733 8.82101ZM39.1731 9.1752L39.1735 9.1748L38.82 8.82125L38.8196 8.82165L39.1731 9.1752ZM39.1765 8.82504L39.1729 8.82146L38.8198 9.17539L38.8234 9.17897L39.1765 8.82504ZM31.1565 17.177L39.1765 9.17902L38.8234 8.82498L30.8034 16.823L31.1565 17.177ZM29.74 16.1231L30.804 17.1776L31.1559 16.8225L30.092 15.768L29.74 16.1231ZM35.9533 9.57173L29.7395 15.7685L30.0925 16.1226L36.3064 9.92576L35.9533 9.57173ZM36.1298 9.49874H1V9.99874H36.1298V9.49874ZM1.25 9.74874V8.25134H0.75V9.74874H1.25ZM1 8.50134H36.1267V8.00134H1V8.50134ZM29.7392 2.23446L35.9502 8.42836L36.3032 8.07432L30.0923 1.88042L29.7392 2.23446Z" fill="#A2A5A8"/>
</svg>
