<svg width="237" height="41" viewBox="0 0 237 41" fill="none" xmlns="http://www.w3.org/2000/svg">
<g clip-path="url(#clip0)">
<path d="M180.555 11.1674H168.486V6.68779H184.086C184.454 6.68779 184.771 6.37159 184.771 6.00268V0.996094H161.898V28.5587H165.798L168.486 25.8709V17.0699H179.026V27.6101H170.225L167.537 30.2978V33.618H179.026C183.875 33.618 186.879 30.4032 186.879 22.0238C186.879 14.9091 183.822 11.1674 180.555 11.1674Z" fill="white"/>
<path d="M161.369 30.9844H157.68V38.4679H165.111V33.6194V30.9844H161.369Z" fill="white"/>
<path d="M0 33.6186H6.90382V17.0705H14.0711V33.6186H20.975V11.168H0V33.6186Z" fill="white"/>
<path d="M35.8908 10.6914C29.3559 10.6914 23.875 15.2764 23.875 22.4437C23.875 29.8745 28.8816 34.3014 36.1543 34.3014C40.6339 34.3014 45.3243 31.9826 47.3269 26.7125H41.0028C40.2123 28.03 38.5259 28.9786 35.9435 28.9786C33.4666 28.9786 30.9896 27.503 30.7788 24.2882H47.4323C47.8539 16.3831 43.2689 10.6914 35.8908 10.6914ZM35.8908 15.9615C38.2097 15.9615 40.1069 17.1209 40.5285 19.4398H31.0423C31.6747 17.0155 33.6774 15.9615 35.8908 15.9615Z" fill="white"/>
<path d="M64.0831 10.7969C61.6061 10.7969 58.6549 11.9036 57.1792 14.3278V11.2712H50.3281V40.9945H57.2319V30.7178C58.7076 33.1948 61.6588 34.2488 64.1358 34.2488C69.8802 34.2488 73.9908 29.8219 73.9908 22.4965C73.9381 15.1711 69.8275 10.7969 64.0831 10.7969ZM61.8169 28.926C59.1292 28.926 56.863 27.1342 56.863 22.4965C56.863 17.8588 59.1292 16.1197 61.8169 16.1197C64.5574 16.1197 66.8235 18.3331 66.8235 22.4965C66.8235 26.6599 64.5574 28.926 61.8169 28.926Z" fill="white"/>
<path d="M94.9141 21.55C96.6006 20.6541 97.6019 19.0731 97.6019 17.0705C97.6019 12.3801 93.9655 11.168 88.9589 11.168H76.5742V33.6186H89.3805C94.8614 33.6186 98.4978 31.6686 98.4978 26.6093C98.4978 23.8689 97.0222 22.2879 94.9141 21.55ZM83.478 15.8057H88.1157C89.9602 15.8057 91.0143 16.6489 91.0143 17.9137C91.0143 19.2839 89.9602 20.1798 88.1157 20.1798H83.478V15.8057ZM88.3792 28.9809H83.478V24.027H88.3792C90.6454 24.027 91.8048 24.9229 91.8048 26.5039C91.8048 27.9796 90.6454 28.9809 88.3792 28.9809Z" fill="white"/>
<path d="M111.357 18.1772H108.248V11.168H101.344V33.6186H111.726C117.997 33.6186 120.843 31.6686 120.843 25.7661C120.843 20.5487 117.997 18.1772 111.357 18.1772ZM110.988 28.9809H108.3V22.7622H110.988C113.254 22.7622 114.414 23.6581 114.414 25.6607C114.414 27.9796 113.254 28.9809 110.988 28.9809Z" fill="white"/>
<path d="M129.38 11.168H122.477V33.6186H129.38V11.168Z" fill="white"/>
<path d="M148.564 11.168L139.5 24.5013V11.168H132.754V33.6186H139.394L148.511 20.496V33.6186H155.257V11.168H148.564Z" fill="white"/>
<path d="M196.101 24.5013V11.168H189.355V33.6186H195.996L205.113 20.496V33.6186H211.859V11.168H205.166L196.101 24.5013Z" fill="white"/>
<path d="M214.969 11.168V16.9651H222.189V33.5132H229.093V16.9651H236.313V11.168H214.969Z" fill="white"/>
<path d="M149.144 3.84194H138.867C138.814 3.84194 138.762 3.78924 138.762 3.73654V0.996094H149.302V3.73654C149.249 3.78924 149.197 3.84194 149.144 3.84194Z" fill="white"/>
</g>
<defs>
<clipPath id="clip0">
<rect width="236.311" height="40" fill="white" transform="translate(0 0.996094)"/>
</clipPath>
</defs>
</svg>
